<svg width="1792" height="895" viewBox="0 0 1792 895" fill="none" xmlns="http://www.w3.org/2000/svg">
<path d="M108.78 656.506C122.117 663.319 171.374 678.448 163.79 647.136C161.89 639.338 156.346 632.765 150.033 628.384C142.804 623.349 135.68 621.608 129.36 615.176C121.66 607.427 113.386 600.425 104.645 594.26C86.6963 581.362 66.8278 570.33 45.8883 568.679C31.2028 567.526 8.84368 574.85 7.11542 593.738C4.59196 621.237 45.4726 615.114 60.022 620.959C73.8237 626.484 84.3216 639.545 96.59 648.865C100.465 651.802 104.545 654.36 108.78 656.506Z" fill="url(#paint0_linear)"/>
<path d="M1725.16 728.125C1693.8 725.689 1663.63 728.78 1634.37 742.923C1601.76 758.689 1579.85 796.085 1570.9 829.913C1567.57 842.479 1565.86 855.979 1569.88 868.336C1579.19 896.878 1607.44 892.751 1629.42 881.821C1641.81 875.665 1652.22 866.437 1662.52 857.303C1679.61 842.132 1701.46 831.055 1715.49 812.625C1720.19 806.427 1723.16 799.701 1729.16 794.498C1738.5 786.401 1750.09 780.646 1759.84 772.939C1768.16 766.338 1776.88 756.816 1774.14 746.569C1771.32 736.063 1758.54 732.319 1747.78 730.729C1740.15 729.584 1732.63 728.694 1725.16 728.125Z" fill="url(#paint1_linear)"/>
<path d="M825.104 722.831C789.933 743.162 753.065 756.386 711.087 756.213C664.298 756.016 617.915 724.621 588.603 690.165C577.712 677.367 568.188 662.576 565.98 645.921C560.894 607.444 596.105 596.499 627.809 596.987C645.679 597.253 662.962 602.206 680.052 607.116C708.425 615.277 740.066 616.005 766.685 629.678C775.62 634.283 782.837 640.469 792.731 643.19C808.123 647.426 824.84 647.672 840.499 651.221C853.875 654.278 869.35 660.518 871.872 673.999C874.443 687.827 861.653 699.319 849.999 707.178C841.754 712.767 833.485 718.002 825.104 722.831Z" fill="url(#paint2_linear)"/>
<path d="M576.8 267.685C617.798 157.432 741.155 86.9832 857.386 96.1937C913.435 100.644 965.635 125.711 1014.79 152.964C1058.12 176.984 1101.03 203.829 1135.44 239.921C1158.93 264.556 1179.14 296.035 1195.33 326.079C1219.54 371.07 1223.39 435.736 1160.18 446.41C1145.35 448.916 1131.47 446.764 1116.72 445.517C1104.78 444.501 1094.53 449.375 1082.64 450.363C1052.72 452.857 1022.37 449.048 993.089 443.054C933.407 430.812 876.113 408.355 815.679 399.621C766.158 392.487 715.73 394.892 667.114 406.708C646.604 411.695 625.399 418.41 604.815 413.734C554.076 402.19 559.467 336.231 567.946 297.793C570.181 287.56 573.14 277.499 576.8 267.685Z" fill="url(#paint3_linear)"/>
<path d="M1076.51 161.679C1088.57 168.201 1133.33 183.109 1127.06 154.285C1125.49 147.107 1120.56 140.971 1114.87 136.825C1108.37 132.061 1101.88 130.314 1096.24 124.29C1089.35 117.033 1081.93 110.445 1074.06 104.614C1057.91 92.4214 1039.96 81.8969 1020.83 79.9346C1007.41 78.5635 986.791 84.7857 984.803 102.038C981.901 127.154 1019.45 122.429 1032.64 128.092C1045.16 133.446 1054.49 145.627 1065.52 154.422C1069 157.194 1072.68 159.623 1076.51 161.679Z" fill="url(#paint4_linear)"/>
<path d="M872.693 174.827C898.29 182.519 919.899 198.124 944.184 209.006C984.615 227.12 1032.48 221.127 1075.93 229.97C1120.23 238.999 1157.35 260.801 1181.19 299.487C1211.98 349.418 1229.44 413.489 1228.21 472.875C1226.85 538.246 1198.36 588.428 1148.75 629.388C1099.17 670.325 1039.99 698.257 978.502 716.089C972.57 717.814 966.619 719.419 960.619 720.929C825.845 754.768 634.563 751.261 553.103 617.528C552.357 616.306 551.629 615.08 550.895 613.836C542.204 598.843 535.339 582.863 530.447 566.237C512.958 507.334 507.276 438.982 514.489 377.981C519.331 336.916 544.321 304.898 570.665 274.42C607.678 231.601 657.853 202.877 711.337 185.728C750.943 173.031 796.012 160.897 837.895 166.978C849.674 168.721 861.306 171.345 872.693 174.827Z" fill="url(#paint5_linear)"/>
<path d="M1186.26 591.85C1162.6 624.876 1134.47 652.125 1096.15 669.277C1053.44 688.392 998.243 678.916 957.331 659.613C942.132 652.445 927.356 642.897 918.477 628.635C897.977 595.678 925.541 571.187 954.626 558.559C971.016 551.433 988.803 548.818 1006.4 546.245C1035.61 541.979 1064.74 529.595 1094.63 531.075C1104.66 531.586 1113.79 534.246 1123.93 532.645C1139.7 530.157 1155.03 523.488 1170.76 520.264C1184.2 517.533 1200.87 516.838 1208.73 528.078C1216.77 539.616 1209.86 555.36 1202.48 567.325C1197.28 575.816 1191.9 583.996 1186.26 591.85Z" fill="url(#paint6_linear)"/>
<path d="M790.432 412.303C790.091 412.303 789.748 412.194 789.455 411.969C789.188 411.759 782.859 406.76 778.026 396.563C773.594 387.211 769.658 371.535 776.066 349.922C780.412 335.26 784.768 324.837 788.609 315.635C795.583 298.941 800.623 286.879 801.03 261.307C801.043 260.432 801.689 259.681 802.643 259.742C803.525 259.758 804.225 260.477 804.212 261.358C803.795 287.54 798.389 300.481 791.545 316.863C787.734 325.989 783.416 336.329 779.117 350.828C767.431 390.231 791.17 409.27 791.412 409.455C792.102 409.996 792.226 410.995 791.689 411.689C791.374 412.093 790.906 412.303 790.432 412.303Z" fill="#000C3E"/>
<path d="M920.799 161.036C920.561 178.37 906.316 192.233 888.979 191.994C871.645 191.756 857.785 177.511 858.021 160.174C858.259 142.84 872.507 128.98 889.841 129.216C907.175 129.454 921.038 143.702 920.799 161.036Z" fill="#000C3E"/>
<path d="M787.394 401.09C787.394 401.09 797.051 419.859 834.808 425.646C872.563 431.431 901.749 417.125 931.024 426.963C960.299 436.805 1001.91 422.092 1009.93 409.699C1017.95 397.306 1013 262.283 989.577 240.18C966.153 218.076 845.792 202.021 820.433 229.139C795.075 256.26 770.55 386.269 787.394 401.09Z" fill="#000C3E"/>
<path d="M1001.94 289.381C1001.16 346.509 954.209 392.186 897.078 391.403C839.95 390.62 794.273 343.671 795.055 286.543C795.841 229.415 842.788 183.738 899.916 184.52C957.044 185.306 1002.72 232.253 1001.94 289.381Z" fill="#000C3E"/>
<path d="M813.966 286.087C813.966 286.087 821.198 411.521 906.201 414.925C991.201 418.33 986.915 241.46 955.801 225.364C924.687 209.271 796.587 215.472 813.966 286.087Z" fill="#FFCEB0"/>
<path d="M901.744 310.892C901.744 310.892 918.871 349.146 914.761 351.806C910.65 354.462 898.432 354.297 895.075 351.535C891.719 348.773 895.012 306.727 901.744 310.892Z" fill="#F5A473"/>
<path d="M876.633 324.427C876.522 328.83 872.863 332.311 868.46 332.2C864.056 332.092 860.575 328.433 860.687 324.029C860.795 319.626 864.454 316.145 868.86 316.253C873.264 316.364 876.745 320.023 876.633 324.427Z" fill="#41294A"/>
<path d="M945.01 319.046C944.899 323.449 941.24 326.93 936.836 326.819C932.433 326.711 928.952 323.052 929.064 318.648C929.172 314.244 932.831 310.764 937.237 310.872C941.641 310.983 945.122 314.642 945.01 319.046Z" fill="#41294A"/>
<path d="M879.202 217.554C879.202 217.554 849.118 232.995 843.986 260.759C838.851 288.523 843.525 359.192 811.205 356.714C811.205 356.714 745.451 218.197 879.202 217.554Z" fill="#41294A"/>
<path d="M895.256 217.774C892.542 219.817 926.679 218.923 946.759 242.121C966.842 265.319 972.881 324.343 975.926 325.368C978.971 326.396 989.257 251.736 967.329 229.9C945.4 208.067 910.7 206.152 895.256 217.774Z" fill="#41294A"/>
<path d="M968.725 330.584C968.725 330.584 976.103 298.964 990.542 309.814C1004.98 320.664 992.938 353.808 978.998 357.12C965.062 360.432 961.372 346.967 968.725 330.584Z" fill="#FFCEB0"/>
<path d="M834.746 328.747C834.746 328.747 828.236 296.936 813.505 307.385C798.777 317.834 809.906 351.299 823.747 354.993C837.591 358.684 841.647 345.327 834.746 328.747Z" fill="#FFCEB0"/>
<path d="M933.183 290.911C933.183 290.911 948.195 282.992 957.444 294.37C965.58 304.373 947.011 296.266 940.177 297.561C933.339 298.859 924.31 298.293 933.183 290.911Z" fill="#41294A"/>
<path d="M873.527 293.794C873.527 293.794 858.13 286.651 849.473 298.484C841.859 308.891 859.989 299.845 866.883 300.794C873.775 301.739 882.767 300.711 873.527 293.794Z" fill="#41294A"/>
<path d="M927.732 375.181C927.732 375.181 917.939 360.382 907.344 361.315C896.745 362.25 888.622 375.89 887.197 376.463C887.197 376.463 903.736 384.229 927.732 375.181Z" fill="#41294A"/>
<path d="M868.172 306.668C854.914 306.668 843.979 317.461 843.794 330.722C843.708 337.232 846.158 343.392 850.702 348.062C855.245 352.73 861.332 355.349 867.845 355.438L868.185 355.441C881.443 355.441 892.379 344.652 892.56 331.39C892.745 317.947 881.959 306.859 868.513 306.671L868.172 306.668ZM868.185 358.623L867.8 358.619C860.438 358.521 853.556 355.555 848.42 350.28C843.285 345.002 840.514 338.04 840.612 330.677C840.819 315.685 853.183 303.486 868.172 303.486L868.557 303.49C883.757 303.7 895.949 316.236 895.742 331.432C895.539 346.424 883.174 358.623 868.185 358.623Z" fill="#FFFCF6"/>
<path d="M937.038 301.156C923.777 301.156 912.841 311.949 912.66 325.21C912.475 338.65 923.264 349.741 936.707 349.926L937.048 349.929C950.309 349.929 961.245 339.14 961.426 325.878C961.515 319.365 959.062 313.206 954.522 308.535C949.978 303.87 943.891 301.249 937.378 301.159L937.038 301.156ZM937.048 353.111L936.666 353.108C921.463 352.898 909.271 340.362 909.478 325.166C909.685 310.173 922.046 297.975 937.038 297.975L937.423 297.978C944.786 298.076 951.668 301.042 956.8 306.317C961.938 311.596 964.71 318.557 964.608 325.92C964.401 340.912 952.037 353.111 937.048 353.111Z" fill="#FFFCF6"/>
<path d="M842.887 326.728C842.705 326.728 842.517 326.696 842.339 326.632L832.135 322.884C831.311 322.579 830.888 321.666 831.191 320.838C831.493 320.017 832.412 319.601 833.233 319.896L843.434 323.641C844.261 323.947 844.681 324.86 844.379 325.687C844.143 326.33 843.536 326.728 842.887 326.728Z" fill="#FFFCF6"/>
<path d="M961.873 319.497C961.196 319.497 960.566 319.061 960.356 318.38C960.092 317.544 960.559 316.65 961.399 316.385L975.345 312.033C976.178 311.766 977.076 312.24 977.337 313.076C977.601 313.916 977.133 314.807 976.293 315.071L962.347 319.427C962.192 319.475 962.029 319.497 961.873 319.497Z" fill="#FFFCF6"/>
<path d="M894.759 246.943C894.759 246.943 894.788 278.674 913.69 284.404C932.59 290.138 981.21 287.608 980.717 279.854C976.265 209.847 943.357 213.369 915.873 204.409C867.673 188.701 828.251 267.401 834.153 286.002C840.055 304.599 880.737 287.233 889.445 284.617C898.151 281.999 893.327 260.436 894.759 246.943Z" fill="#000C3E"/>
<g opacity="0.210007">
<g opacity="0.210007">
<path opacity="0.210007" d="M846.015 354.112C846.015 354.112 888.895 329.371 907.715 332.83C926.535 336.291 959.565 336.832 961.06 343.584C962.559 350.332 919.185 347.291 905.844 348.589C892.503 349.887 841.287 365.245 846.015 354.112Z" fill="#DB5C5D"/>
</g>
</g>
<path d="M870.013 337.556C869.386 337.556 868.791 337.184 868.539 336.564C868.209 335.752 868.6 334.823 869.414 334.492C873.726 332.736 874.524 331.352 874.531 331.339C874.814 330.506 875.686 330.118 876.526 330.413C877.356 330.697 877.773 331.664 877.49 332.498C877.289 333.083 876.204 335.164 870.611 337.439C870.413 337.518 870.213 337.556 870.013 337.556Z" fill="#DB5C5D"/>
<path d="M935.524 334.188C934.242 334.188 932.078 333.8 928.68 332.143C927.888 331.761 927.56 330.809 927.945 330.017C928.327 329.228 929.284 328.904 930.07 329.285C934.261 331.325 935.82 330.984 935.839 330.984C936.65 330.644 937.516 331.042 937.859 331.85C938.203 332.658 937.764 333.613 936.952 333.959C936.742 334.048 936.291 334.188 935.524 334.188Z" fill="#DB5C5D"/>
<path d="M894.128 331.541C893.323 331.541 892.629 330.934 892.546 330.113C892.457 329.238 893.094 328.455 893.969 328.369L911.042 326.626C911.898 326.517 912.696 327.17 912.785 328.045C912.875 328.92 912.238 329.702 911.363 329.788L894.29 331.532C894.236 331.538 894.182 331.541 894.128 331.541Z" fill="#FFFCF6"/>
<path d="M870.487 191.566C870.255 191.566 870.016 191.515 869.794 191.404C860.767 187.016 855.307 180.758 853.557 172.8C849.676 155.132 865.46 135.584 866.135 134.759C866.695 134.079 867.694 133.98 868.371 134.537C869.052 135.094 869.154 136.093 868.597 136.774C868.441 136.964 853.112 155.969 856.666 172.126C858.196 179.081 863.08 184.605 871.184 188.547C871.973 188.929 872.304 189.883 871.919 190.672C871.645 191.235 871.079 191.566 870.487 191.566Z" fill="#000C3E"/>
<path d="M906.817 196.295C906.375 196.295 905.936 196.11 905.621 195.754C905.041 195.092 905.105 194.09 905.767 193.507C905.951 193.345 924.196 177.122 923.343 160.599C922.977 153.488 919.067 147.236 911.72 142.014C911.004 141.508 910.835 140.516 911.345 139.797C911.854 139.084 912.846 138.915 913.562 139.424C921.742 145.234 926.105 152.307 926.521 160.446C927.444 178.509 908.665 195.197 907.864 195.9C907.561 196.164 907.189 196.295 906.817 196.295Z" fill="#000C3E"/>
<path d="M1001.45 405.181C1000.99 405.181 1000.53 404.984 1000.21 404.593C999.659 403.915 999.761 402.913 1000.44 402.356C1000.65 402.184 1021.58 384.707 1015.52 357.058C1013.18 346.399 1009.09 334.671 1004.75 322.256C997.231 300.725 989.455 278.459 988.822 256.874C988.797 255.993 989.49 255.265 990.368 255.236C991.192 255.265 991.978 255.901 992.004 256.779C992.624 277.874 1000.31 299.904 1007.75 321.206C1012.12 333.717 1016.25 345.53 1018.63 356.374C1025.11 385.98 1002.68 404.641 1002.45 404.825C1002.15 405.064 1001.8 405.181 1001.45 405.181Z" fill="#000C3E"/>
<path d="M1007.1 291.552C1007.05 291.552 1006.99 291.549 1006.94 291.546C1006.07 291.46 1005.43 290.68 1005.51 289.805C1008.26 261.968 1002.4 239.375 988.109 222.642C965.09 195.709 927.691 193.236 927.319 193.214C926.441 193.163 925.77 192.412 925.824 191.531C925.871 190.656 926.626 189.962 927.501 190.039C927.892 190.061 966.639 192.619 990.527 220.574C1005.41 237.991 1011.52 261.389 1008.68 290.117C1008.6 290.941 1007.91 291.552 1007.1 291.552Z" fill="#000C3E"/>
<path d="M893.154 378.321C893.154 378.321 909.008 367.198 923.167 376.734C923.167 376.734 906.635 382.929 893.154 378.321Z" fill="#DB5C5D"/>
<path d="M903.644 389.741C902.079 389.741 900.733 389.725 899.903 389.713C899.025 389.7 898.325 388.978 898.337 388.096C898.35 387.218 898.951 386.505 899.954 386.531C905.961 386.61 913.139 386.464 914.256 386.041C915.073 385.729 915.996 386.136 916.311 386.954C916.626 387.775 916.225 388.688 915.407 389.006C913.816 389.624 907.911 389.741 903.644 389.741Z" fill="#DB5C5D"/>
<path d="M826.48 346.204C826.337 346.204 826.194 346.185 826.051 346.144C825.204 345.908 824.711 345.033 824.946 344.184C829.299 328.584 817.743 318.539 817.625 318.437C816.957 317.871 816.874 316.865 817.444 316.194C818.01 315.526 819.016 315.443 819.687 316.016C820.228 316.474 832.907 327.499 828.01 345.043C827.813 345.743 827.177 346.204 826.48 346.204Z" fill="#DB5C5D"/>
<path d="M974.92 350.004C974.885 350.004 974.853 350.004 974.815 350.001C973.94 349.943 973.275 349.186 973.329 348.311C974.519 329.847 983.367 319.978 983.746 319.567C984.338 318.918 985.343 318.874 985.989 319.465C986.638 320.057 986.683 321.063 986.094 321.712C986.008 321.807 977.618 331.235 976.508 348.515C976.45 349.358 975.75 350.004 974.92 350.004Z" fill="#DB5C5D"/>
<path d="M942.972 401.942C942.972 401.942 948.031 458.535 941.318 467.485C934.604 476.439 892.084 469.722 880.893 467.485C869.703 465.249 869.681 371.648 871.94 377.97C890.623 430.186 941.684 383.978 942.972 401.942Z" fill="#FFCEB0"/>
<path d="M875.986 407.539C875.986 407.539 906.152 422.039 940.445 404.488C940.445 404.488 943.111 425.57 940.445 430.432C937.782 435.294 883.46 438.768 872.766 414.806C872.766 414.806 872.9 406.499 875.986 407.539Z" fill="#F5A473"/>
<path d="M711.249 850.877H1101.62C1101.62 850.877 1121.56 511.475 1072.66 474.567C1023.76 437.656 808.486 456.094 757.804 487.622C707.122 519.149 711.249 850.877 711.249 850.877Z" fill="#FB4C47"/>
<path d="M906.153 460.778C906.153 460.778 891.106 591.242 897.674 609.4C904.237 627.558 895.828 708.066 893.155 718.531C890.48 728.995 809.374 733.44 788.445 725.069C767.515 716.698 793.777 491.046 805.492 449.299C817.211 407.548 904.864 432.146 906.153 460.778Z" fill="#05BA6E"/>
<path d="M667.969 300.933C667.969 300.933 700.598 363.425 723.465 364.004C746.335 364.584 823.454 270.668 851.889 269.701C880.328 268.737 904.747 271.496 904.859 264.718C904.97 257.938 865.307 250.537 865.307 250.537C865.307 250.537 922.667 254.19 910.802 247.916C898.941 241.641 870.515 236 870.515 236C870.515 236 911.741 237.664 912.04 233.254C912.339 228.844 869.118 222.35 869.118 222.35C869.118 222.35 921.712 220.671 912.094 213.435C902.472 206.2 884.365 209.34 835.389 216.821C786.409 224.301 675.602 289.689 667.969 300.933Z" fill="#FFCEB0"/>
<path d="M725.214 297.939C725.214 297.939 777.41 329.031 754.683 364.266C730.483 401.785 731.838 390.639 727.654 405.819C723.467 420.999 792.441 450.564 795.578 463.558C798.715 476.549 766.201 636.332 735.745 629.775C709.235 624.07 561.915 540.467 540.743 456.921C524.332 392.15 658.102 233.722 725.214 297.939Z" fill="#FB4C47"/>
<path d="M861.845 662.399C861.845 662.399 804.011 789.802 825.274 806.862C846.538 823.92 863.672 812.806 882.476 823.878C901.283 834.951 919.323 829.415 934.43 819.78C949.537 810.143 910.22 683.392 893.958 671.324C877.697 659.252 864.776 655.778 861.845 662.399Z" fill="white"/>
<path d="M1054 465.501C1054 465.501 1085.1 469.297 1109.51 514.001C1127.82 547.541 1163.3 743.53 1109.51 771.455C1055.72 799.378 1005.26 784.772 985.736 765.954C966.209 747.136 1000.95 650.155 1024.11 642.916C1047.27 635.68 1054 465.501 1054 465.501Z" fill="#FB4C47"/>
<path d="M1064.07 462.497C1064.07 462.497 1065.52 453.435 1020.74 434.055C985.005 418.589 954.393 444.692 899.88 447.501C845.368 450.314 850.287 428.707 811.727 438.748C752.222 454.24 799.598 493.245 818.772 497.623C837.945 502.001 902.181 609.986 1064.07 462.497Z" fill="#05BA6E"/>
<path d="M907.78 353.601C907.78 353.601 907.614 357.292 909.733 357.626C911.852 357.96 915.769 356.776 914.76 351.803C914.76 351.803 909.447 353.512 907.78 353.601Z" fill="white"/>
<path d="M1128.51 659.319C1128.36 659.319 1128.21 659.31 1128.06 659.287C1126.59 659.077 1125.5 657.894 1125.35 656.484C1122.69 653.42 1104.9 647.003 1093.03 642.72C1069.51 634.234 1058.96 630.038 1056.69 625.446C1054.77 621.555 1055.63 615.942 1056.72 608.838C1058.45 597.593 1060.6 583.594 1053.46 570.11C1041.13 546.823 1042.31 512.282 1042.37 510.824C1042.44 509.068 1043.95 507.662 1045.66 507.767C1047.42 507.834 1048.79 509.313 1048.73 511.066C1048.71 511.41 1047.56 545.372 1059.09 567.132C1067.21 582.48 1064.78 598.271 1063.01 609.802C1062.16 615.322 1061.36 620.537 1062.4 622.627C1064.33 625.602 1082.9 632.303 1095.19 636.735C1122.88 646.726 1132.49 650.744 1131.66 656.589C1131.43 658.177 1130.07 659.319 1128.51 659.319Z" fill="#B31B1F"/>
<path d="M1045.5 633.159C1045.22 633.159 1044.94 633.124 1044.66 633.048C1034.15 630.181 1017.82 627.197 1017.65 627.165C1015.92 626.853 1014.78 625.195 1015.09 623.468C1015.41 621.737 1017.06 620.572 1018.79 620.906C1019.47 621.027 1035.55 623.967 1046.33 626.907C1048.03 627.372 1049.03 629.119 1048.57 630.814C1048.18 632.23 1046.9 633.159 1045.5 633.159Z" fill="#B31B1F"/>
<path d="M1102.65 790.54C1102.6 790.54 1102.55 790.54 1102.51 790.537C1043.61 787.868 984.935 762.78 981.763 738.917C980.767 731.417 980.048 727.666 979.603 725.811C978.413 725.219 977.691 723.953 977.904 722.569C978.308 719.947 980.083 719.018 981.493 719.018H981.528C984.732 719.053 985.795 720.93 988.073 738.08C990.535 756.604 1043.96 781.514 1102.79 784.18C1104.55 784.26 1105.91 785.746 1105.83 787.502C1105.75 789.21 1104.34 790.54 1102.65 790.54Z" fill="#B31B1F"/>
<path d="M997.077 734.227C996.845 734.227 996.609 734.201 996.371 734.15C994.659 733.762 993.583 732.057 993.972 730.342C994.108 729.728 1008.03 668.384 1021.03 624.256C1021.53 622.57 1023.31 621.603 1024.98 622.105C1026.67 622.602 1027.63 624.371 1027.13 626.057C1014.19 669.987 1000.32 731.134 1000.18 731.748C999.842 733.224 998.531 734.227 997.077 734.227Z" fill="#B31B1F"/>
<path d="M721 600.995C720.844 600.995 720.682 600.982 720.523 600.96C718.786 600.699 717.59 599.077 717.85 597.343C718.178 595.147 726.034 543.301 736.814 519.04C747.294 495.463 752.659 471.559 752.713 471.32C753.088 469.605 754.784 468.533 756.508 468.902C758.223 469.284 759.305 470.986 758.923 472.701C758.704 473.7 753.365 497.468 742.63 521.627C732.2 545.098 724.22 597.756 724.141 598.284C723.905 599.866 722.547 600.995 721 600.995Z" fill="#B31B1F"/>
<path d="M672.497 419.978C664.027 419.978 654.536 419.462 644.088 418.132C642.344 417.91 641.109 416.319 641.332 414.575C641.552 412.832 643.184 411.619 644.889 411.82C676.707 415.873 699.31 412.141 710.961 409.599C705.158 407.744 697.028 405.937 688.915 406.379C670.658 407.238 643.944 390.929 642.815 390.229C641.319 389.306 640.858 387.346 641.781 385.851C642.703 384.355 644.667 383.887 646.159 384.817C646.42 384.976 672.351 400.817 688.587 400.022C704.054 399.207 722.371 406.096 724.035 409.052C724.63 410.105 724.582 411.473 723.904 412.475C723.274 413.401 721.97 413.958 720.825 413.888C720.322 413.945 718.833 414.302 717.385 414.645C710.427 416.312 695.091 419.975 672.497 419.978Z" fill="#B31B1F"/>
<path d="M750.708 351.595C749.525 351.595 748.389 350.933 747.841 349.8C747.762 349.638 739.817 333.5 726.288 327.105C710.93 319.841 693.561 294.524 692.829 293.452C691.84 291.998 692.215 290.015 693.666 289.029C695.123 288.043 697.099 288.421 698.085 289.866C698.257 290.114 715.213 314.823 729.012 321.349C744.602 328.727 753.212 346.287 753.572 347.029C754.335 348.613 753.67 350.51 752.089 351.273C751.644 351.493 751.173 351.595 750.708 351.595Z" fill="#B31B1F"/>
<path d="M898.497 536.502C898.379 536.502 898.258 536.489 898.141 536.46C897.285 536.266 896.747 535.41 896.944 534.558C897.021 534.22 904.609 501.048 906.83 484.197C910.289 457.926 898.522 448.762 898.405 448.673C897.702 448.145 897.555 447.152 898.077 446.449C898.599 445.743 899.585 445.593 900.292 446.112C900.842 446.516 913.709 456.319 909.983 484.611C907.746 501.614 900.123 534.933 900.047 535.264C899.878 536.005 899.222 536.502 898.497 536.502Z" fill="#08824F"/>
<path d="M804.663 488.658L801.503 488.292C801.503 488.292 803.972 466.812 805.261 456.252C806.562 445.599 809.601 438.326 809.731 438.02C810.072 437.206 811.007 436.837 811.815 437.171C812.623 437.514 813.002 438.45 812.662 439.258C812.63 439.328 809.661 446.455 808.42 456.64C807.132 467.19 804.663 488.654 804.663 488.658Z" fill="#08824F"/>
<path d="M895.008 841.386C876.863 841.386 866.885 840.788 853.076 839.961C835.312 838.895 810.988 837.438 754.143 836.553C752.387 836.528 750.984 835.083 751.012 833.324C751.041 831.568 752.587 830.104 754.242 830.19C811.227 831.074 835.634 832.541 853.455 833.61C867.155 834.428 877.05 835.023 895.008 835.023C917.487 835.023 937.653 832.56 957.157 830.18C974.278 828.087 990.447 826.114 1007.78 825.729C1044.75 824.915 1072.37 825.726 1072.65 825.729C1074.4 825.786 1075.78 827.253 1075.73 829.006C1075.68 830.763 1074.19 832.064 1072.46 832.092C1072.18 832.083 1044.71 831.268 1007.92 832.092C990.905 832.468 974.885 834.425 957.927 836.496C938.235 838.901 917.875 841.386 895.008 841.386Z" fill="#B31B1F"/>
<path d="M1039.14 798.933C1037.56 798.933 1035.98 798.224 1034.6 796.136C1030.3 789.642 1029 789.108 1020.69 790.387C1013.17 791.561 1010.2 786.232 1008.24 782.709C1007.58 781.532 1006.96 780.422 1006.41 779.992C1004.95 778.837 1001.29 780.224 999.747 781.077L998.204 778.296C998.878 777.921 1004.87 774.723 1008.39 777.495C1009.43 778.319 1010.16 779.636 1011.01 781.157C1012.91 784.552 1014.88 788.048 1020.2 787.243C1029.72 785.773 1032.26 786.846 1037.25 794.38C1038.57 796.385 1039.72 796.111 1043.25 794.052C1045.93 792.481 1049.99 790.11 1053.02 794.342L1050.44 796.194C1049.25 794.555 1048.19 794.851 1044.85 796.798C1043.26 797.73 1041.2 798.933 1039.14 798.933Z" fill="white"/>
<path d="M1002.12 649.085C1002.12 649.085 926.125 621.605 893.153 635.662C860.181 649.715 833.009 685.949 838.042 688.345C843.076 690.744 870.012 669.852 870.012 669.852C870.012 669.852 842.544 697.61 847.638 700.388C852.732 703.165 879.201 688.345 879.201 688.345C879.201 688.345 860.725 708.097 868.66 709.608C876.595 711.12 893.608 694.845 911.349 694.234C929.094 693.62 951.455 707.642 973.638 711.59C995.818 715.536 1002.12 649.085 1002.12 649.085Z" fill="#FFCEB0"/>
<path d="M1116.82 634.841C1116.62 634.841 1116.42 634.821 1116.22 634.783C1116 634.745 1093.62 630.513 1066.86 625.073C1065.14 624.723 1064.03 623.043 1064.38 621.321C1064.73 619.6 1066.4 618.486 1068.13 618.84C1094.84 624.268 1117.18 628.49 1117.41 628.534C1119.13 628.859 1120.27 630.523 1119.94 632.251C1119.65 633.778 1118.32 634.841 1116.82 634.841Z" fill="#B31B1F"/>
<path fill-rule="evenodd" clip-rule="evenodd" d="M904.41 134.77C903.579 134.77 902.676 134.867 901.697 135.06C899.312 135.539 897.767 136.698 896.839 138.709C892.702 147.662 901.424 168.987 907.656 181.586C911.507 167.61 916.122 144.248 909.601 136.887C908.345 135.471 906.636 134.77 904.41 134.77ZM907.839 192.049C907.939 192.068 908.04 192.082 908.142 192.091C908.474 192.219 908.828 192.284 909.186 192.284C909.517 192.284 909.849 192.23 910.172 192.112C914.422 190.563 951.844 176.528 956.505 160.356C957.626 156.467 956.837 152.633 954.225 149.274C949.782 143.554 944.982 142.874 941.735 143.306C932.524 144.535 923.457 156.435 916.808 167.74C919.16 154.863 920.066 139.993 913.922 133.057C911.755 130.608 907.673 127.984 900.568 129.399C896.398 130.23 893.294 132.616 891.598 136.29C885.32 149.887 899.762 179.17 904.575 188.244C898.506 189.416 892.402 189.68 886.563 189.283C873.984 188.428 862.834 184.517 856.177 180.237L853.798 183.938C861.164 188.674 873.052 192.775 886.265 193.673C893.194 194.144 900.543 193.737 907.839 192.049ZM943.327 148.971C943.054 148.971 942.777 148.988 942.5 149.03C932.744 150.328 920.957 171.018 914.725 184.108C927.68 178.653 948.228 168.234 950.957 158.76C951.571 156.627 951.159 154.741 949.668 152.818C947.661 150.235 945.582 148.971 943.327 148.971Z" fill="#FFD310"/>
<path d="M481.27 243.75H594.515C601.784 243.75 608.662 247.045 613.218 252.711L646.458 294.048C651.173 299.911 658.363 303.224 665.883 302.998L878.85 296.597" stroke="#FFB2B1" stroke-width="5" stroke-linejoin="round"/>
<path d="M493.361 244.266C493.361 249.302 489.279 253.384 484.243 253.384C479.207 253.384 475.124 249.302 475.124 244.266C475.124 239.23 479.207 235.148 484.243 235.148C489.279 235.148 493.361 239.23 493.361 244.266Z" fill="#FF383D"/>
<path d="M295.001 244.367C295.001 205.357 326.625 173.733 365.635 173.733C404.645 173.733 436.266 205.357 436.266 244.367C436.266 283.377 404.645 315.001 365.635 315.001C326.625 315.001 295.001 283.377 295.001 244.367Z" fill="#FFE1E2"/>
<path d="M365.33 156.491C414.103 156.491 453.64 196.029 453.64 244.801C453.64 293.573 414.103 333.114 365.33 333.114V376.725" stroke="#FFD6D7" stroke-width="2.4" stroke-miterlimit="10"/>
<path d="M358.068 378.928C358.068 374.917 361.318 371.666 365.33 371.666C369.342 371.666 372.592 374.917 372.592 378.928C372.592 382.94 369.342 386.19 365.33 386.19C361.318 386.19 358.068 382.94 358.068 378.928Z" fill="#F2AEB0"/>
<path d="M337.158 242.249V245.998H342.572V248.232H337.158V254.001H334.58V239.896H343.603V242.249H337.158ZM348.394 242.249V245.772H354.184V248.017H348.394V251.648H354.84V254.001H345.816V239.896H354.84V242.249H348.394ZM359.072 239.896L361.113 245.117C361.421 245.941 361.79 246.972 362.219 248.211C362.656 249.443 362.961 250.323 363.133 250.853C363.326 250.323 363.637 249.435 364.067 248.189C364.504 246.943 364.876 245.912 365.184 245.096L367.204 239.896H369.954L364.475 254.001H361.822L356.268 239.896H359.072ZM374.326 242.249V245.772H380.116V248.017H374.326V251.648H380.771V254.001H371.748V239.896H380.771V242.249H374.326ZM383.5 239.896H389.096C390.815 239.896 392.119 240.279 393.007 241.046C393.902 241.805 394.349 242.89 394.349 244.301C394.349 245.282 394.12 246.12 393.662 246.814C393.211 247.502 392.573 247.999 391.75 248.307L394.435 254.001H391.556L389.182 248.748H386.078V254.001H383.5V239.896ZM389.096 246.503C389.934 246.503 390.568 246.302 390.998 245.901C391.427 245.493 391.642 244.967 391.642 244.322C391.642 243.678 391.424 243.158 390.987 242.764C390.557 242.363 389.927 242.163 389.096 242.163H386.078V246.503H389.096Z" fill="#FF383D"/>
<path d="M934.77 358.046H1103.58C1112.4 358.046 1120.5 362.878 1124.7 370.631L1155.94 428.42C1160.14 436.173 1168.24 441.004 1177.06 441.004H1259.84" stroke="#FFB2B1" stroke-width="5" stroke-linejoin="round"/>
<path d="M1263.94 440.905C1263.94 445.941 1259.86 450.024 1254.83 450.024C1249.79 450.024 1245.71 445.941 1245.71 440.905C1245.71 435.869 1249.79 431.787 1254.83 431.787C1259.86 431.787 1263.94 435.869 1263.94 440.905Z" fill="#FF383D"/>
<path opacity="0.15" d="M1289.73 459.367C1289.73 420.357 1321.36 388.733 1360.37 388.733C1399.38 388.733 1431 420.357 1431 459.367C1431 498.377 1399.38 530.001 1360.37 530.001C1321.36 530.001 1289.73 498.377 1289.73 459.367Z" fill="#FF383D"/>
<path d="M1326.72 439.896H1332.32C1334.04 439.896 1335.34 440.279 1336.23 441.046C1337.12 441.805 1337.57 442.89 1337.57 444.301C1337.57 445.282 1337.34 446.12 1336.88 446.814C1336.43 447.502 1335.79 447.999 1334.97 448.307L1337.66 454.001H1334.78L1332.4 448.748H1329.3V454.001H1326.72V439.896ZM1332.32 446.503C1333.15 446.503 1333.79 446.302 1334.22 445.901C1334.65 445.493 1334.86 444.967 1334.86 444.322C1334.86 443.678 1334.64 443.158 1334.21 442.764C1333.78 442.363 1333.15 442.163 1332.32 442.163H1329.3V446.503H1332.32ZM1339.93 439.896H1342.51V448.812C1342.51 449.901 1342.82 450.692 1343.43 451.186C1344.05 451.68 1344.83 451.928 1345.79 451.928C1346.8 451.928 1347.6 451.666 1348.19 451.143C1348.79 450.613 1349.09 449.836 1349.09 448.812V439.896H1351.66V448.92C1351.66 450.08 1351.41 451.065 1350.9 451.874C1350.39 452.676 1349.69 453.281 1348.81 453.689C1347.92 454.09 1346.92 454.291 1345.79 454.291C1344.64 454.291 1343.63 454.087 1342.75 453.679C1341.87 453.263 1341.18 452.654 1340.67 451.852C1340.18 451.043 1339.93 450.066 1339.93 448.92V439.896ZM1366.18 439.896V454.001H1363.76L1357.27 444.344V454.001H1354.71V439.896H1357.14L1363.63 449.575V439.896H1366.18ZM1380.81 439.896V454.001H1378.39L1371.9 444.344V454.001H1369.34V439.896H1371.77L1378.26 449.575V439.896H1380.81ZM1385.59 439.896L1387.26 442.754C1387.67 443.47 1388.03 444.132 1388.35 444.741C1388.66 445.343 1388.86 445.722 1388.93 445.88C1389.01 445.715 1389.21 445.357 1389.51 444.805C1389.82 444.247 1390.2 443.563 1390.65 442.754L1392.32 439.896H1395.2L1390.21 448.35V454.001H1387.63V448.35L1382.61 439.896H1385.59ZM1345.75 468.896V483.001H1343.34L1336.85 473.344V483.001H1334.29V468.896H1336.72L1343.21 478.575V468.896H1345.75ZM1363.01 475.943C1363.01 477.361 1362.68 478.629 1362.04 479.746C1361.4 480.863 1360.5 481.733 1359.37 482.356C1358.23 482.979 1356.96 483.291 1355.55 483.291C1354.14 483.291 1352.87 482.983 1351.74 482.367C1350.61 481.751 1349.73 480.885 1349.1 479.767C1348.46 478.65 1348.14 477.383 1348.14 475.965C1348.14 474.54 1348.46 473.272 1349.1 472.162C1349.73 471.045 1350.61 470.175 1351.74 469.552C1352.87 468.929 1354.15 468.617 1355.57 468.617C1356.98 468.617 1358.25 468.929 1359.38 469.552C1360.51 470.175 1361.4 471.041 1362.04 472.151C1362.68 473.254 1363.01 474.518 1363.01 475.943ZM1360.28 475.943C1360.28 474.984 1360.08 474.131 1359.68 473.387C1359.28 472.642 1358.71 472.062 1357.99 471.646C1357.27 471.224 1356.47 471.013 1355.57 471.013C1354.66 471.013 1353.85 471.224 1353.12 471.646C1352.41 472.062 1351.85 472.642 1351.44 473.387C1351.03 474.131 1350.83 474.991 1350.83 475.965C1350.83 476.917 1351.03 477.769 1351.44 478.521C1351.85 479.266 1352.41 479.846 1353.12 480.262C1353.85 480.677 1354.66 480.885 1355.57 480.885C1356.47 480.885 1357.27 480.677 1357.99 480.262C1358.71 479.846 1359.28 479.266 1359.68 478.521C1360.08 477.769 1360.28 476.91 1360.28 475.943ZM1364.85 472.903C1364.85 472.037 1365.06 471.281 1365.48 470.637C1365.9 469.992 1366.49 469.494 1367.25 469.143C1368.02 468.792 1368.9 468.617 1369.89 468.617C1370.87 468.617 1371.75 468.789 1372.51 469.133C1373.28 469.476 1373.88 469.963 1374.31 470.594C1374.74 471.224 1374.95 471.958 1374.95 472.796H1372.3C1372.28 472.194 1372.04 471.711 1371.58 471.346C1371.12 470.973 1370.52 470.787 1369.76 470.787C1369.08 470.787 1368.52 470.959 1368.11 471.303C1367.7 471.639 1367.5 472.076 1367.5 472.613C1367.5 473.143 1367.68 473.533 1368.03 473.784C1368.4 474.035 1368.88 474.232 1369.48 474.375L1371.79 474.944C1372.85 475.195 1373.7 475.657 1374.35 476.33C1375 476.996 1375.33 477.855 1375.33 478.908C1375.33 479.789 1375.11 480.559 1374.66 481.218C1374.23 481.876 1373.6 482.388 1372.79 482.754C1371.99 483.112 1371.06 483.291 1369.99 483.291C1368.41 483.291 1367.12 482.908 1366.12 482.141C1365.13 481.368 1364.6 480.319 1364.51 478.994H1367.16C1367.19 479.653 1367.47 480.172 1367.99 480.552C1368.51 480.924 1369.19 481.11 1370.03 481.11C1370.84 481.11 1371.48 480.938 1371.93 480.595C1372.39 480.251 1372.62 479.778 1372.62 479.177C1372.62 478.661 1372.46 478.271 1372.14 478.006C1371.82 477.741 1371.39 477.544 1370.87 477.415L1368.51 476.846C1367.35 476.566 1366.45 476.101 1365.81 475.449C1365.17 474.79 1364.85 473.942 1364.85 472.903ZM1380.25 471.249V474.772H1386.04V477.017H1380.25V480.648H1386.69V483.001H1377.67V468.896H1386.69V471.249H1380.25Z" fill="#FF383D"/>
<path d="M1365.03 371.266C1413.8 371.266 1453.34 410.804 1453.34 459.579C1453.34 508.351 1413.8 547.889 1365.03 547.889V591.502" stroke="#FFD6D7" stroke-width="2.4" stroke-miterlimit="10"/>
<path d="M1357.77 593.705C1357.77 589.693 1361.02 586.443 1365.03 586.443C1369.04 586.443 1372.29 589.693 1372.29 593.705C1372.29 597.717 1369.04 600.967 1365.03 600.967C1361.02 600.967 1357.77 597.717 1357.77 593.705Z" fill="#F2AEB0"/>
<path opacity="0.15" d="M295.001 730.367C295.001 691.357 326.625 659.733 365.635 659.733C404.645 659.733 436.266 691.357 436.266 730.367C436.266 769.377 404.645 801.001 365.635 801.001C326.625 801.001 295.001 769.377 295.001 730.367Z" fill="#FF383D"/>
<g filter="url(#filter0_d)">
<path d="M315.822 726.896C317.197 726.896 318.422 727.197 319.496 727.799C320.577 728.4 321.419 729.242 322.02 730.323C322.622 731.397 322.923 732.618 322.923 733.986C322.923 735.347 322.625 736.561 322.031 737.628C321.437 738.688 320.599 739.515 319.517 740.109C318.443 740.704 317.211 741.001 315.822 741.001H310.58V726.896H315.822ZM315.596 738.648C316.52 738.648 317.33 738.455 318.024 738.068C318.726 737.674 319.267 737.126 319.646 736.425C320.026 735.723 320.216 734.91 320.216 733.986C320.216 733.048 320.026 732.224 319.646 731.515C319.267 730.799 318.726 730.244 318.024 729.85C317.33 729.449 316.52 729.249 315.596 729.249H313.158V738.648H315.596ZM325.941 726.896L327.617 729.754C328.025 730.47 328.387 731.132 328.702 731.741C329.017 732.343 329.21 732.722 329.282 732.88C329.368 732.715 329.561 732.357 329.862 731.805C330.17 731.247 330.55 730.563 331.001 729.754L332.677 726.896H335.555L330.56 735.35V741.001H327.982V735.35L322.966 726.896H325.941ZM343.139 726.896C344.622 726.896 345.786 727.315 346.631 728.153C347.483 728.991 347.909 730.112 347.909 731.515C347.909 732.425 347.716 733.231 347.329 733.932C346.942 734.627 346.384 735.171 345.653 735.565C344.93 735.959 344.078 736.156 343.096 736.156H339.927V741.001H337.349V726.896H343.139ZM342.613 733.943C343.48 733.943 344.128 733.71 344.557 733.245C344.994 732.772 345.213 732.181 345.213 731.472C345.213 730.828 344.994 730.284 344.557 729.84C344.128 729.388 343.501 729.163 342.677 729.163H339.927V733.943H342.613ZM349.628 730.903C349.628 730.037 349.835 729.281 350.251 728.637C350.673 727.992 351.264 727.494 352.023 727.143C352.789 726.792 353.67 726.617 354.666 726.617C355.647 726.617 356.521 726.789 357.287 727.133C358.053 727.476 358.651 727.963 359.081 728.594C359.51 729.224 359.725 729.958 359.725 730.796H357.072C357.058 730.194 356.818 729.711 356.352 729.346C355.894 728.973 355.289 728.787 354.537 728.787C353.849 728.787 353.298 728.959 352.883 729.303C352.474 729.639 352.27 730.076 352.27 730.613C352.27 731.143 352.449 731.533 352.807 731.784C353.173 732.035 353.656 732.232 354.258 732.375L356.567 732.944C357.62 733.195 358.472 733.657 359.124 734.33C359.775 734.996 360.101 735.855 360.101 736.908C360.101 737.789 359.879 738.559 359.435 739.218C358.998 739.876 358.375 740.388 357.566 740.754C356.764 741.112 355.83 741.291 354.762 741.291C353.18 741.291 351.891 740.908 350.895 740.141C349.907 739.368 349.37 738.319 349.284 736.994H351.937C351.966 737.653 352.242 738.172 352.764 738.552C353.287 738.924 353.968 739.11 354.805 739.11C355.615 739.11 356.248 738.938 356.707 738.595C357.165 738.251 357.394 737.778 357.394 737.177C357.394 736.661 357.233 736.271 356.911 736.006C356.589 735.741 356.166 735.544 355.643 735.415L353.28 734.846C352.12 734.566 351.221 734.101 350.584 733.449C349.946 732.79 349.628 731.942 349.628 730.903ZM373.905 726.896V741.001H371.488L365 731.344V741.001H362.443V726.896H364.871L371.359 736.575V726.896H373.905ZM391.157 733.943C391.157 735.361 390.835 736.629 390.19 737.746C389.546 738.863 388.654 739.733 387.515 740.356C386.384 740.979 385.113 741.291 383.702 741.291C382.291 741.291 381.02 740.983 379.888 740.367C378.764 739.751 377.883 738.885 377.246 737.767C376.608 736.65 376.29 735.383 376.29 733.965C376.29 732.54 376.608 731.272 377.246 730.162C377.883 729.045 378.764 728.175 379.888 727.552C381.02 726.929 382.298 726.617 383.723 726.617C385.134 726.617 386.402 726.929 387.526 727.552C388.658 728.175 389.546 729.041 390.19 730.151C390.835 731.254 391.157 732.518 391.157 733.943ZM388.428 733.943C388.428 732.984 388.228 732.131 387.827 731.387C387.426 730.642 386.864 730.062 386.14 729.646C385.424 729.224 384.619 729.013 383.723 729.013C382.814 729.013 381.997 729.224 381.274 729.646C380.558 730.062 379.996 730.642 379.588 731.387C379.179 732.131 378.975 732.991 378.975 733.965C378.975 734.917 379.179 735.769 379.588 736.521C379.996 737.266 380.558 737.846 381.274 738.262C381.997 738.677 382.814 738.885 383.723 738.885C384.619 738.885 385.424 738.677 386.14 738.262C386.864 737.846 387.426 737.266 387.827 736.521C388.228 735.769 388.428 734.91 388.428 733.943ZM396.109 729.249V732.772H401.899V735.017H396.109V738.648H402.554V741.001H393.531V726.896H402.554V729.249H396.109ZM409.161 726.896H411.782L417.013 741.001H414.285L413.146 737.789H407.754L406.561 741.001H403.897L409.161 726.896ZM412.394 735.651L411.492 733.17C411.406 732.933 411.17 732.235 410.783 731.075L410.482 730.194C410.425 730.388 410.289 730.792 410.074 731.408C409.859 732.024 409.641 732.611 409.419 733.17L408.495 735.651H412.394Z" fill="#FF383D"/>
</g>
<path d="M365.333 642.643C414.105 642.643 453.643 682.181 453.643 730.953C453.643 779.728 414.105 819.266 365.333 819.266V862.877" stroke="#FFD6D7" stroke-width="2.4" stroke-miterlimit="10"/>
<path d="M358.07 865.081C358.07 861.069 361.321 857.819 365.332 857.819C369.344 857.819 372.595 861.069 372.595 865.081C372.595 869.09 369.344 872.343 365.332 872.343C361.321 872.343 358.07 869.09 358.07 865.081Z" fill="#F2AEB0"/>
<path d="M470.74 742.835H649.033C658.666 742.835 667.365 737.075 671.127 728.208L727.54 595.234C731.302 586.366 740.002 580.607 749.634 580.607H956.809" stroke="#FFB2B1" stroke-width="5" stroke-linejoin="round"/>
<path d="M485.987 743.241C485.987 748.277 481.904 752.36 476.868 752.36C471.832 752.36 467.75 748.277 467.75 743.241C467.75 738.205 471.832 734.123 476.868 734.123C481.904 734.123 485.987 738.205 485.987 743.241Z" fill="#FF383D"/>
<path opacity="0.15" d="M443.268 488.367C443.268 449.357 411.644 417.733 372.634 417.733C333.624 417.733 302 449.357 302 488.367C302 527.377 333.624 559.001 372.634 559.001C411.644 559.001 443.268 527.377 443.268 488.367Z" fill="#FF383D"/>
<path d="M342.203 474.227H337.938V486.001H335.36V474.227H331.052V471.896H342.203V474.227ZM344.115 471.896H346.693V477.751L352.945 477.772V471.896H355.534V486.001H352.945V479.996H346.693V486.001H344.115V471.896ZM358.574 471.896H364.17C365.889 471.896 367.193 472.279 368.081 473.046C368.976 473.805 369.423 474.89 369.423 476.301C369.423 477.282 369.194 478.12 368.736 478.814C368.285 479.502 367.647 479.999 366.824 480.307L369.509 486.001H366.63L364.256 480.748H361.152V486.001H358.574V471.896ZM364.17 478.503C365.008 478.503 365.642 478.302 366.072 477.901C366.501 477.493 366.716 476.967 366.716 476.322C366.716 475.677 366.498 475.158 366.061 474.764C365.631 474.363 365.001 474.163 364.17 474.163H361.152V478.503H364.17ZM385.87 478.943C385.87 480.361 385.547 481.629 384.903 482.746C384.258 483.863 383.367 484.733 382.228 485.356C381.097 485.979 379.825 486.291 378.415 486.291C377.004 486.291 375.733 485.983 374.601 485.367C373.477 484.751 372.596 483.885 371.958 482.767C371.321 481.65 371.002 480.383 371.002 478.965C371.002 477.539 371.321 476.272 371.958 475.162C372.596 474.045 373.477 473.175 374.601 472.552C375.733 471.928 377.011 471.617 378.436 471.617C379.847 471.617 381.114 471.928 382.239 472.552C383.37 473.175 384.258 474.041 384.903 475.151C385.547 476.254 385.87 477.518 385.87 478.943ZM383.141 478.943C383.141 477.983 382.941 477.131 382.54 476.386C382.139 475.642 381.576 475.062 380.853 474.646C380.137 474.224 379.331 474.012 378.436 474.012C377.527 474.012 376.71 474.224 375.987 474.646C375.271 475.062 374.708 475.642 374.3 476.386C373.892 477.131 373.688 477.991 373.688 478.965C373.688 479.917 373.892 480.769 374.3 481.521C374.708 482.266 375.271 482.846 375.987 483.261C376.71 483.677 377.527 483.885 378.436 483.885C379.331 483.885 380.137 483.677 380.853 483.261C381.576 482.846 382.139 482.266 382.54 481.521C382.941 480.769 383.141 479.91 383.141 478.943ZM391.456 471.896H394.077L399.308 486.001H396.58L395.441 482.789H390.048L388.856 486.001H386.192L391.456 471.896ZM394.689 480.651L393.787 478.17C393.701 477.933 393.464 477.235 393.078 476.075L392.777 475.194C392.72 475.387 392.583 475.792 392.369 476.408C392.154 477.024 391.935 477.611 391.713 478.17L390.79 480.651H394.689ZM409.707 474.227H405.442V486.001H402.864V474.227H398.556V471.896H409.707V474.227ZM357.682 500.896C359.165 500.896 360.328 501.315 361.173 502.153C362.026 502.991 362.452 504.112 362.452 505.515C362.452 506.425 362.258 507.231 361.872 507.932C361.485 508.627 360.926 509.171 360.196 509.565C359.472 509.959 358.62 510.156 357.639 510.156H354.47V515.001H351.892V500.896H357.682ZM357.156 507.943C358.022 507.943 358.67 507.71 359.1 507.245C359.537 506.772 359.755 506.181 359.755 505.472C359.755 504.828 359.537 504.284 359.1 503.84C358.67 503.388 358.044 503.163 357.22 503.163H354.47V507.943H357.156ZM367.372 500.896H369.993L375.224 515.001H372.496L371.357 511.789H365.964L364.772 515.001H362.108L367.372 500.896ZM370.605 509.651L369.703 507.17C369.617 506.933 369.38 506.235 368.994 505.075L368.693 504.194C368.636 504.387 368.5 504.792 368.285 505.408C368.07 506.024 367.851 506.611 367.629 507.17L366.706 509.651H370.605ZM377.029 515.001V500.896H379.607V515.001H377.029ZM394.098 500.896V515.001H391.681L385.193 505.344V515.001H382.636V500.896H385.064L391.552 510.575V500.896H394.098Z" fill="#FF383D"/>
<path d="M373.973 400.026C325.2 400.026 285.663 439.564 285.663 488.339C285.663 537.111 325.2 576.649 373.973 576.649V620.263" stroke="#FFD6D7" stroke-width="2.4" stroke-miterlimit="10"/>
<path d="M381.433 622.546C381.433 618.534 378.182 615.283 374.17 615.283C370.161 615.283 366.908 618.534 366.908 622.546C366.908 626.557 370.161 629.808 374.17 629.808C378.182 629.808 381.433 626.557 381.433 622.546Z" fill="#F2AEB0"/>
<path d="M474.511 503.071H677.822C685.243 503.071 692.246 499.638 696.792 493.773L739.528 438.63C744.074 432.764 751.077 429.331 758.498 429.331H915.721" stroke="#FFB2B1" stroke-width="5" stroke-linejoin="round"/>
<path d="M484.761 503.587C484.761 508.623 480.678 512.705 475.642 512.705C470.606 512.705 466.524 508.623 466.524 503.587C466.524 498.551 470.606 494.468 475.642 494.468C480.678 494.468 484.761 498.551 484.761 503.587Z" fill="#FF383D"/>
<path opacity="0.13" d="M1444 700.367C1444 661.357 1412.38 629.733 1373.37 629.733C1334.36 629.733 1302.74 661.357 1302.74 700.367C1302.74 739.376 1334.36 771.001 1373.37 771.001C1412.38 771.001 1444 739.376 1444 700.367Z" fill="#FF383D"/>
<path d="M1329.72 683.903C1329.72 683.036 1329.92 682.281 1330.34 681.636C1330.76 680.992 1331.35 680.494 1332.11 680.143C1332.88 679.792 1333.76 679.617 1334.75 679.617C1335.74 679.617 1336.61 679.789 1337.38 680.133C1338.14 680.476 1338.74 680.963 1339.17 681.593C1339.6 682.224 1339.81 682.958 1339.81 683.796H1337.16C1337.15 683.194 1336.91 682.711 1336.44 682.345C1335.98 681.973 1335.38 681.787 1334.63 681.787C1333.94 681.787 1333.39 681.959 1332.97 682.302C1332.56 682.639 1332.36 683.076 1332.36 683.613C1332.36 684.143 1332.54 684.533 1332.9 684.784C1333.26 685.035 1333.74 685.231 1334.35 685.375L1336.66 685.944C1337.71 686.195 1338.56 686.657 1339.21 687.33C1339.86 687.996 1340.19 688.855 1340.19 689.908C1340.19 690.789 1339.97 691.559 1339.52 692.217C1339.09 692.876 1338.46 693.388 1337.65 693.754C1336.85 694.112 1335.92 694.291 1334.85 694.291C1333.27 694.291 1331.98 693.908 1330.98 693.141C1330 692.368 1329.46 691.319 1329.37 689.994H1332.03C1332.05 690.653 1332.33 691.172 1332.85 691.551C1333.38 691.924 1334.06 692.11 1334.89 692.11C1335.7 692.11 1336.34 691.938 1336.8 691.594C1337.25 691.251 1337.48 690.778 1337.48 690.176C1337.48 689.661 1337.32 689.271 1337 689.006C1336.68 688.741 1336.25 688.544 1335.73 688.415L1333.37 687.845C1332.21 687.566 1331.31 687.101 1330.67 686.449C1330.03 685.79 1329.72 684.941 1329.72 683.903ZM1342.53 679.896H1345.11V685.751L1351.36 685.772V679.896H1353.95V694.001H1351.36V687.996H1345.11V694.001H1342.53V679.896ZM1360.87 679.896H1363.49L1368.72 694.001H1365.99L1364.85 690.789H1359.46L1358.27 694.001H1355.6L1360.87 679.896ZM1364.1 688.651L1363.2 686.17C1363.11 685.933 1362.88 685.235 1362.49 684.075L1362.19 683.194C1362.13 683.387 1362 683.792 1361.78 684.408C1361.57 685.024 1361.35 685.611 1361.13 686.17L1360.2 688.651H1364.1ZM1377.22 685.966L1382.08 694.001H1378.98L1375.46 688.146L1373.13 691.036V694.044H1370.53V679.896H1373.13V687.072L1378.89 679.896H1382.11L1377.22 685.966ZM1383.95 694.001V679.896H1386.53V694.001H1383.95ZM1401.02 679.896V694.001H1398.61L1392.12 684.343V694.001H1389.56V679.896H1391.99L1398.48 689.575V679.896H1401.02ZM1417.62 686.341V687.684C1417.62 688.988 1417.32 690.141 1416.72 691.143C1416.12 692.139 1415.28 692.912 1414.2 693.464C1413.14 694.015 1411.92 694.291 1410.55 694.291C1409.13 694.291 1407.88 693.99 1406.8 693.388C1405.73 692.787 1404.89 691.942 1404.3 690.853C1403.7 689.758 1403.41 688.49 1403.41 687.05C1403.41 685.582 1403.71 684.29 1404.32 683.173C1404.93 682.048 1405.78 681.174 1406.88 680.551C1407.98 679.928 1409.24 679.617 1410.67 679.617C1411.82 679.617 1412.85 679.817 1413.78 680.218C1414.72 680.619 1415.5 681.185 1416.12 681.916C1416.73 682.639 1417.14 683.47 1417.33 684.408H1414.58C1414.3 683.649 1413.81 683.058 1413.1 682.635C1412.39 682.206 1411.55 681.991 1410.59 681.991C1409.2 681.991 1408.09 682.449 1407.29 683.366C1406.48 684.283 1406.07 685.496 1406.07 687.008C1406.07 688.519 1406.48 689.711 1407.3 690.585C1408.12 691.451 1409.23 691.884 1410.62 691.884C1411.78 691.884 1412.74 691.594 1413.49 691.014C1414.26 690.427 1414.72 689.604 1414.87 688.544H1410.4V686.341H1417.62ZM1346.97 723.291C1345.56 723.291 1344.3 722.986 1343.2 722.378C1342.1 721.769 1341.25 720.906 1340.63 719.789C1340.01 718.672 1339.71 717.39 1339.71 715.943C1339.71 714.504 1340.01 713.229 1340.62 712.119C1341.23 711.002 1342.08 710.139 1343.18 709.53C1344.28 708.921 1345.54 708.617 1346.97 708.617C1348.14 708.617 1349.22 708.817 1350.19 709.218C1351.16 709.619 1351.97 710.2 1352.61 710.959C1353.25 711.711 1353.65 712.584 1353.83 713.58H1350.96C1350.74 712.821 1350.27 712.201 1349.55 711.721C1348.82 711.234 1347.96 710.991 1346.95 710.991C1346.04 710.991 1345.24 711.195 1344.54 711.603C1343.85 712.011 1343.32 712.595 1342.95 713.354C1342.58 714.106 1342.39 714.976 1342.39 715.965C1342.39 716.96 1342.58 717.834 1342.96 718.586C1343.34 719.33 1343.87 719.9 1344.56 720.294C1345.26 720.688 1346.05 720.884 1346.95 720.884C1347.93 720.884 1348.78 720.648 1349.51 720.175C1350.25 719.696 1350.74 719.062 1350.96 718.274H1353.83C1353.67 719.255 1353.27 720.129 1352.64 720.895C1352.01 721.654 1351.21 722.245 1350.23 722.668C1349.26 723.083 1348.17 723.291 1346.97 723.291ZM1356.17 708.896H1358.75V714.751L1365 714.772V708.896H1367.59V723.001H1365V716.996H1358.75V723.001H1356.17V708.896ZM1370.63 723.001V708.896H1373.21V723.001H1370.63ZM1384.67 720.67V723.001H1376.24V708.896H1378.84V720.67H1384.67ZM1395.18 720.67V723.001H1386.75V708.896H1389.35V720.67H1395.18ZM1396.85 712.903C1396.85 712.036 1397.06 711.281 1397.48 710.636C1397.9 709.992 1398.49 709.494 1399.25 709.143C1400.02 708.792 1400.9 708.617 1401.89 708.617C1402.87 708.617 1403.75 708.789 1404.51 709.133C1405.28 709.476 1405.88 709.963 1406.31 710.593C1406.74 711.224 1406.95 711.958 1406.95 712.796H1404.3C1404.28 712.194 1404.05 711.711 1403.58 711.345C1403.12 710.973 1402.52 710.787 1401.76 710.787C1401.08 710.787 1400.53 710.959 1400.11 711.302C1399.7 711.639 1399.5 712.076 1399.5 712.613C1399.5 713.143 1399.68 713.533 1400.03 713.784C1400.4 714.035 1400.88 714.231 1401.48 714.375L1403.79 714.944C1404.85 715.195 1405.7 715.657 1406.35 716.33C1407 716.996 1407.33 717.855 1407.33 718.908C1407.33 719.789 1407.11 720.559 1406.66 721.217C1406.23 721.876 1405.6 722.388 1404.79 722.754C1403.99 723.112 1403.06 723.291 1401.99 723.291C1400.41 723.291 1399.12 722.908 1398.12 722.141C1397.13 721.368 1396.6 720.319 1396.51 718.994H1399.16C1399.19 719.653 1399.47 720.172 1399.99 720.551C1400.51 720.924 1401.19 721.11 1402.03 721.11C1402.84 721.11 1403.48 720.938 1403.93 720.594C1404.39 720.251 1404.62 719.778 1404.62 719.176C1404.62 718.661 1404.46 718.271 1404.14 718.006C1403.82 717.741 1403.39 717.544 1402.87 717.415L1400.51 716.845C1399.35 716.566 1398.45 716.101 1397.81 715.449C1397.17 714.79 1396.85 713.941 1396.85 712.903Z" fill="#FA5652"/>
<path d="M1373.87 613.802C1325.1 613.802 1285.56 653.34 1285.56 702.112C1285.56 750.887 1325.1 790.425 1373.87 790.425V834.036" stroke="#FFD6D7" stroke-width="2.4" stroke-miterlimit="10"/>
<path d="M1381.13 836.239C1381.13 832.228 1377.88 828.977 1373.86 828.977C1369.85 828.977 1366.6 832.228 1366.6 836.239C1366.6 840.248 1369.85 843.502 1373.86 843.502C1377.88 843.502 1381.13 840.248 1381.13 836.239Z" fill="#F2AEB0"/>
<path d="M1009.74 754.401H1100.85C1108.12 754.401 1115.01 751.099 1119.56 745.422L1145.1 713.606C1149.65 707.93 1156.54 704.627 1163.81 704.627H1258" stroke="#FFA6A6" stroke-width="5" stroke-linejoin="round"/>
<path d="M1263.94 703.913C1263.94 708.949 1259.86 713.032 1254.82 713.032C1249.79 713.032 1245.71 708.949 1245.71 703.913C1245.71 698.877 1249.79 694.795 1254.82 694.795C1259.86 694.795 1263.94 698.877 1263.94 703.913Z" fill="#FF383D"/>
<path opacity="0.15" d="M1444 214.367C1444 175.357 1412.38 143.733 1373.37 143.733C1334.36 143.733 1302.74 175.357 1302.74 214.367C1302.74 253.377 1334.36 285.001 1373.37 285.001C1412.38 285.001 1444 253.377 1444 214.367Z" fill="#FF383D"/>
<path d="M1320.58 210.896H1323.16V216.751L1329.41 216.772V210.896H1332V225.001H1329.41V218.996H1323.16V225.001H1320.58V210.896ZM1337.62 213.249V216.772H1343.41V219.017H1337.62V222.648H1344.06V225.001H1335.04V210.896H1344.06V213.249H1337.62ZM1350.67 210.896H1353.29L1358.52 225.001H1355.79L1354.65 221.789H1349.26L1348.07 225.001H1345.41L1350.67 210.896ZM1353.9 219.651L1353 217.17C1352.91 216.933 1352.68 216.235 1352.29 215.075L1351.99 214.194C1351.93 214.388 1351.8 214.792 1351.58 215.408C1351.37 216.024 1351.15 216.611 1350.93 217.17L1350 219.651H1353.9ZM1365.57 210.896C1366.94 210.896 1368.17 211.197 1369.24 211.799C1370.32 212.4 1371.17 213.242 1371.77 214.323C1372.37 215.397 1372.67 216.618 1372.67 217.986C1372.67 219.347 1372.37 220.561 1371.78 221.628C1371.18 222.688 1370.35 223.515 1369.26 224.109C1368.19 224.704 1366.96 225.001 1365.57 225.001H1360.33V210.896H1365.57ZM1365.34 222.648C1366.27 222.648 1367.08 222.455 1367.77 222.068C1368.47 221.674 1369.01 221.126 1369.39 220.425C1369.77 219.723 1369.96 218.91 1369.96 217.986C1369.96 217.048 1369.77 216.224 1369.39 215.515C1369.01 214.799 1368.47 214.244 1367.77 213.85C1367.08 213.449 1366.27 213.249 1365.34 213.249H1362.9V222.648H1365.34ZM1378.26 210.896H1380.88L1386.11 225.001H1383.38L1382.24 221.789H1376.85L1375.66 225.001H1372.99L1378.26 210.896ZM1381.49 219.651L1380.59 217.17C1380.5 216.933 1380.26 216.235 1379.88 215.075L1379.58 214.194C1379.52 214.388 1379.38 214.792 1379.17 215.408C1378.95 216.024 1378.73 216.611 1378.51 217.17L1377.59 219.651H1381.49ZM1393.72 225.291C1392.31 225.291 1391.06 224.986 1389.95 224.378C1388.86 223.769 1388 222.906 1387.39 221.789C1386.77 220.672 1386.46 219.39 1386.46 217.943C1386.46 216.504 1386.77 215.229 1387.38 214.119C1387.98 213.002 1388.84 212.139 1389.93 211.53C1391.03 210.921 1392.3 210.617 1393.72 210.617C1394.9 210.617 1395.97 210.818 1396.95 211.219C1397.92 211.62 1398.73 212.2 1399.36 212.959C1400 213.711 1400.41 214.584 1400.59 215.58H1397.72C1397.5 214.821 1397.03 214.201 1396.3 213.721C1395.58 213.235 1394.71 212.991 1393.7 212.991C1392.79 212.991 1391.99 213.195 1391.3 213.603C1390.61 214.012 1390.08 214.595 1389.71 215.354C1389.33 216.106 1389.15 216.976 1389.15 217.965C1389.15 218.96 1389.34 219.834 1389.72 220.586C1390.1 221.331 1390.63 221.9 1391.32 222.294C1392.01 222.688 1392.81 222.885 1393.7 222.885C1394.68 222.885 1395.54 222.648 1396.27 222.176C1397.01 221.696 1397.49 221.062 1397.72 220.274H1400.59C1400.42 221.255 1400.03 222.129 1399.4 222.895C1398.77 223.654 1397.96 224.245 1396.99 224.668C1396.02 225.083 1394.93 225.291 1393.72 225.291ZM1402.93 210.896H1405.51V216.751L1411.76 216.772V210.896H1414.35V225.001H1411.76V218.996H1405.51V225.001H1402.93V210.896ZM1419.97 213.249V216.772H1425.76V219.017H1419.97V222.648H1426.41V225.001H1417.39V210.896H1426.41V213.249H1419.97Z" fill="#FF383D"/>
<path d="M1373.87 127.65C1325.1 127.65 1285.56 167.188 1285.56 215.96C1285.56 264.733 1325.1 304.273 1373.87 304.273V347.884" stroke="#FFD6D7" stroke-width="2.4" stroke-miterlimit="10"/>
<path d="M1381.13 350.088C1381.13 346.076 1377.88 342.826 1373.87 342.826C1369.86 342.826 1366.61 346.076 1366.61 350.088C1366.61 354.1 1369.86 357.35 1373.87 357.35C1377.88 357.35 1381.13 354.1 1381.13 350.088Z" fill="#F2AEB0"/>
<path d="M1259.84 222.86H1133.56C1127.44 222.86 1121.56 225.196 1117.1 229.391L1088.57 256.272C1084.11 260.466 1078.23 262.802 1072.11 262.802H958.12" stroke="#FFB2B1" stroke-width="5" stroke-linejoin="round"/>
<path d="M1263.94 222.146C1263.94 227.182 1259.86 231.265 1254.82 231.265C1249.79 231.265 1245.7 227.182 1245.7 222.146C1245.7 217.11 1249.79 213.028 1254.82 213.028C1259.86 213.028 1263.94 217.11 1263.94 222.146Z" fill="#FF383D"/>
<defs>
<filter id="filter0_d" x="310.58" y="726.617" width="106.434" height="14.6738" filterUnits="userSpaceOnUse" color-interpolation-filters="sRGB">
<feFlood flood-opacity="0" result="BackgroundImageFix"/>
<feColorMatrix in="SourceAlpha" type="matrix" values="0 0 0 0 0 0 0 0 0 0 0 0 0 0 0 0 0 0 127 0"/>
<feOffset/>
<feColorMatrix type="matrix" values="0 0 0 0 0 0 0 0 0 0 0 0 0 0 0 0 0 0 0.1 0"/>
<feBlend mode="normal" in2="BackgroundImageFix" result="effect1_dropShadow"/>
<feBlend mode="normal" in="SourceGraphic" in2="effect1_dropShadow" result="shape"/>
</filter>
<linearGradient id="paint0_linear" x1="164.736" y1="646.296" x2="-11.8229" y2="621.42" gradientUnits="userSpaceOnUse">
<stop stop-color="#FFE1E2"/>
<stop offset="1" stop-color="#FFF8F8"/>
</linearGradient>
<linearGradient id="paint1_linear" x1="1710.07" y1="724.797" x2="1600.45" y2="833.246" gradientUnits="userSpaceOnUse">
<stop stop-color="#FFD3D2"/>
<stop offset="1" stop-color="#FFFAFA"/>
</linearGradient>
<linearGradient id="paint2_linear" x1="563.615" y1="651.802" x2="627.866" y2="780.176" gradientUnits="userSpaceOnUse">
<stop stop-color="#FFC8C8"/>
<stop offset="1" stop-color="#FFF2F5"/>
</linearGradient>
<linearGradient id="paint3_linear" x1="1195.18" y1="248.5" x2="673.511" y2="38.2379" gradientUnits="userSpaceOnUse">
<stop stop-color="white"/>
<stop offset="1" stop-color="#FFD5D5"/>
</linearGradient>
<linearGradient id="paint4_linear" x1="1127.95" y1="153.536" x2="966.873" y2="126.968" gradientUnits="userSpaceOnUse">
<stop stop-color="#FFD3D3"/>
<stop offset="1" stop-color="#FFF6F6"/>
</linearGradient>
<linearGradient id="paint5_linear" x1="489.431" y1="428.026" x2="1246.77" y2="428.026" gradientUnits="userSpaceOnUse">
<stop stop-color="#FFF8F5"/>
<stop offset="1" stop-color="#FFDEDE"/>
</linearGradient>
<linearGradient id="paint6_linear" x1="1177.01" y1="609.535" x2="978.623" y2="627.819" gradientUnits="userSpaceOnUse">
<stop stop-color="#FFC2C2"/>
<stop offset="1" stop-color="white"/>
</linearGradient>
</defs>
</svg>
