<svg width="243" height="65" viewBox="0 0 243 65" fill="none" xmlns="http://www.w3.org/2000/svg">
<path d="M89.191 35.832C89.191 36.63 89.058 37.3647 88.792 38.036C88.526 38.6947 88.1523 39.2583 87.671 39.727C87.2023 40.1957 86.626 40.5567 85.942 40.81C85.2707 41.0633 84.5233 41.19 83.7 41.19C82.3827 41.19 81.2553 40.8543 80.318 40.183C79.3807 39.5117 78.7157 38.549 78.323 37.295L80.869 36.326C81.1477 37.124 81.5213 37.7193 81.99 38.112C82.4587 38.5047 83.035 38.701 83.719 38.701C84.5297 38.701 85.182 38.4287 85.676 37.884C86.1827 37.3393 86.436 36.63 86.436 35.756V27.7H89.191V35.832ZM91.3874 41V27.7H94.1424V41H91.3874ZM96.5642 27.7H99.1862L105.798 36.307V27.7H108.382V41H105.95L99.1672 32.108V41H96.5642V27.7ZM109.523 41L114.995 27.7H118.187L123.583 41H120.6L119.251 37.504H113.76L112.392 41H109.523ZM114.615 35.3H118.415L116.534 30.398L114.615 35.3ZM123.923 34.483H131.067V36.687H123.923V34.483ZM139.897 38.644C140.593 38.644 141.246 38.4983 141.854 38.207C142.462 37.9157 143 37.4977 143.469 36.953L145.274 38.739C144.64 39.4863 143.83 40.0817 142.842 40.525C141.866 40.9683 140.859 41.19 139.821 41.19C138.82 41.19 137.883 41.0127 137.009 40.658C136.147 40.3033 135.4 39.822 134.767 39.214C134.133 38.606 133.633 37.884 133.266 37.048C132.911 36.212 132.734 35.3127 132.734 34.35C132.734 33.3873 132.917 32.488 133.285 31.652C133.652 30.8033 134.152 30.075 134.786 29.467C135.419 28.859 136.166 28.3777 137.028 28.023C137.902 27.6683 138.833 27.491 139.821 27.491C140.885 27.491 141.917 27.719 142.918 28.175C143.918 28.6183 144.729 29.22 145.35 29.98L143.488 31.823C143.019 31.2403 142.468 30.797 141.835 30.493C141.201 30.1763 140.53 30.018 139.821 30.018C139.225 30.018 138.662 30.132 138.13 30.36C137.61 30.5753 137.161 30.8793 136.781 31.272C136.401 31.652 136.103 32.108 135.888 32.64C135.672 33.1593 135.565 33.7293 135.565 34.35C135.565 34.958 135.672 35.528 135.888 36.06C136.116 36.5793 136.42 37.029 136.8 37.409C137.192 37.789 137.648 38.093 138.168 38.321C138.7 38.5363 139.276 38.644 139.897 38.644ZM160.079 34.35C160.079 35.3 159.896 36.1993 159.528 37.048C159.161 37.884 158.661 38.6123 158.027 39.233C157.407 39.841 156.666 40.3223 155.804 40.677C154.943 41.0317 154.018 41.209 153.03 41.209C152.055 41.209 151.137 41.0317 150.275 40.677C149.414 40.3223 148.667 39.841 148.033 39.233C147.413 38.6123 146.919 37.884 146.551 37.048C146.184 36.1993 146 35.3 146 34.35C146 33.4 146.184 32.507 146.551 31.671C146.919 30.8223 147.413 30.094 148.033 29.486C148.667 28.8653 149.414 28.3777 150.275 28.023C151.137 27.6683 152.055 27.491 153.03 27.491C154.018 27.491 154.943 27.6683 155.804 28.023C156.666 28.3777 157.407 28.8653 158.027 29.486C158.661 30.094 159.161 30.8223 159.528 31.671C159.896 32.507 160.079 33.4 160.079 34.35ZM157.248 34.35C157.248 33.7293 157.141 33.1593 156.925 32.64C156.71 32.108 156.412 31.652 156.032 31.272C155.665 30.8793 155.222 30.5753 154.702 30.36C154.183 30.132 153.626 30.018 153.03 30.018C152.435 30.018 151.878 30.132 151.358 30.36C150.852 30.5753 150.408 30.8793 150.028 31.272C149.661 31.652 149.37 32.108 149.154 32.64C148.939 33.1593 148.831 33.7293 148.831 34.35C148.831 34.958 148.939 35.528 149.154 36.06C149.37 36.592 149.661 37.0543 150.028 37.447C150.408 37.827 150.852 38.131 151.358 38.359C151.878 38.5743 152.435 38.682 153.03 38.682C153.626 38.682 154.183 38.5743 154.702 38.359C155.222 38.131 155.665 37.827 156.032 37.447C156.412 37.0543 156.71 36.592 156.925 36.06C157.141 35.528 157.248 34.958 157.248 34.35ZM165.35 41L159.954 27.7H162.937L167.003 38.207L171.164 27.7H174.014L168.542 41H165.35ZM175.143 41V27.7H177.898V41H175.143ZM180.32 41V27.7H185.431C186.419 27.7 187.344 27.871 188.205 28.213C189.066 28.555 189.807 29.0237 190.428 29.619C191.061 30.2143 191.555 30.9237 191.91 31.747C192.277 32.5703 192.461 33.4507 192.461 34.388C192.461 35.3127 192.277 36.1803 191.91 36.991C191.555 37.8017 191.061 38.5047 190.428 39.1C189.807 39.6827 189.066 40.145 188.205 40.487C187.344 40.829 186.419 41 185.431 41H180.32ZM185.412 30.151H183.075V38.549H185.412C185.995 38.549 186.539 38.4413 187.046 38.226C187.565 38.0107 188.015 37.7193 188.395 37.352C188.775 36.972 189.073 36.5287 189.288 36.022C189.503 35.5153 189.611 34.9707 189.611 34.388C189.611 33.7927 189.503 33.2353 189.288 32.716C189.073 32.1967 188.775 31.747 188.395 31.367C188.015 30.987 187.565 30.6893 187.046 30.474C186.539 30.2587 185.995 30.151 185.412 30.151ZM197.752 34.483H204.896V36.687H197.752V34.483ZM215.121 27.7V41H212.518V30.341L209.915 31.405V29.144L213.468 27.7H215.121ZM221.726 27.472C222.6 27.472 223.398 27.6367 224.12 27.966C224.842 28.2827 225.456 28.7323 225.963 29.315C226.482 29.885 226.881 30.5753 227.16 31.386C227.451 32.1967 227.597 33.0897 227.597 34.065C227.597 35.129 227.438 36.1043 227.122 36.991C226.805 37.865 226.362 38.6123 225.792 39.233C225.222 39.8537 224.531 40.335 223.721 40.677C222.91 41.019 222.017 41.19 221.042 41.19C220.32 41.19 219.604 41.076 218.895 40.848C218.185 40.6073 217.59 40.2907 217.109 39.898L218.591 38.036C218.983 38.34 219.395 38.5617 219.826 38.701C220.256 38.8403 220.725 38.91 221.232 38.91C222.372 38.91 223.265 38.5237 223.911 37.751C224.569 36.9657 224.93 35.8573 224.994 34.426C224.563 34.9073 224.031 35.2873 223.398 35.566C222.764 35.832 222.093 35.965 221.384 35.965C220.712 35.965 220.092 35.8637 219.522 35.661C218.952 35.4583 218.458 35.1797 218.04 34.825C217.634 34.4577 217.318 34.027 217.09 33.533C216.862 33.0263 216.748 32.4753 216.748 31.88C216.748 31.2467 216.874 30.664 217.128 30.132C217.381 29.5873 217.723 29.1187 218.154 28.726C218.597 28.3333 219.123 28.0293 219.731 27.814C220.351 27.586 221.016 27.472 221.726 27.472ZM221.802 33.913C222.397 33.913 222.948 33.7863 223.455 33.533C223.974 33.2797 224.436 32.9187 224.842 32.45C224.639 31.614 224.272 30.9427 223.74 30.436C223.208 29.9293 222.574 29.676 221.84 29.676C221.118 29.676 220.51 29.8787 220.016 30.284C219.534 30.6893 219.294 31.2023 219.294 31.823C219.294 32.4437 219.528 32.9503 219.997 33.343C220.465 33.723 221.067 33.913 221.802 33.913Z" fill="#035755"/>
<path d="M45.9204 33.4997C45.9204 34.5498 46.7716 35.4012 47.8218 35.4012H52.1462C54.3476 35.4012 56.5224 35.9058 58.4878 36.8974C59.0737 37.1931 59.7468 37.3414 60.4583 37.2939C62.3433 37.168 63.8715 35.6348 63.9919 33.7494C64.1331 31.5359 62.3801 29.697 60.197 29.697C59.6057 29.697 59.0459 29.832 58.547 30.0729C56.5443 31.0398 54.3693 31.5984 52.1454 31.5984H47.8218C46.7718 31.5983 45.9204 32.4497 45.9204 33.4997Z" fill="#FB4C47"/>
<path d="M20.154 45.8447C19.5401 45.2308 18.5448 45.2308 17.9309 45.8447L15.4028 48.3728C14.1159 49.6597 12.5495 50.6361 10.8208 51.2054C10.3054 51.3751 9.82528 51.6818 9.43719 52.1255C8.40878 53.3011 8.41161 55.0908 9.44347 56.2634C10.6549 57.6401 12.7547 57.6903 14.031 56.414C14.3766 56.0684 14.6249 55.6622 14.7759 55.2297C15.3814 53.4937 16.3264 51.8957 17.6265 50.5956L20.1541 48.068C20.7678 47.4539 20.7678 46.4586 20.154 45.8447Z" fill="#FB4C47"/>
<path d="M42.9569 23.0433C43.5993 23.6857 44.6408 23.6857 45.2832 23.0433L47.9287 20.3979C49.2754 19.0512 50.9145 18.0295 52.7234 17.4337C53.2627 17.2561 53.7652 16.9351 54.1713 16.4708C55.2474 15.2406 55.2445 13.3678 54.1646 12.1408C52.897 10.7003 50.6996 10.6478 49.3641 11.9832C49.0024 12.3449 48.7426 12.7699 48.5847 13.2225C47.951 15.0391 46.9622 16.7113 45.6018 18.0718L42.9568 20.7168C42.3145 21.3594 42.3145 22.4008 42.9569 23.0433Z" fill="#FB4C47"/>
<path d="M32.4989 46.9199C31.4488 46.9199 30.5975 47.7712 30.5975 48.8213V53.1457C30.5975 55.3471 30.0929 57.5219 29.1012 59.4873C28.8055 60.0732 28.6573 60.7463 28.7048 61.4577C28.8307 63.3428 30.3638 64.871 32.2492 64.9914C34.4627 65.1326 36.3016 63.3796 36.3016 61.1965C36.3016 60.6052 36.1666 60.0454 35.9257 59.5465C34.9588 57.5438 34.4002 55.3688 34.4002 53.1449V48.8213C34.4003 47.7713 33.549 46.9199 32.4989 46.9199Z" fill="#FFA2A1"/>
<path d="M35.9285 59.5466C34.9616 57.5439 34.4029 55.369 34.4029 53.145V48.8213C34.4029 47.7713 33.5517 46.9199 32.5015 46.9199C31.4513 46.9199 30.6001 47.7712 30.6001 48.8213V53.145C30.6001 55.369 31.1587 57.5438 32.1256 59.5466C32.3665 60.0456 32.5015 60.6053 32.5015 61.1967C32.5015 62.6031 31.7377 63.8301 30.6028 64.488C31.0951 64.7743 31.6558 64.9535 32.252 64.9915C34.4655 65.1328 36.3044 63.3797 36.3044 61.1967C36.3044 60.6053 36.1694 60.0456 35.9285 59.5466Z" fill="#FB4C47"/>
<path d="M18.3091 25.647C21.7395 25.647 24.5203 22.8662 24.5203 19.4358C24.5203 16.0055 21.7395 13.2246 18.3091 13.2246C14.8788 13.2246 12.0979 16.0055 12.0979 19.4358C12.0979 22.8662 14.8788 25.647 18.3091 25.647Z" fill="#FF807E"/>
<path d="M18.3082 13.2246C17.6448 13.2246 17.0062 13.3297 16.4067 13.5223C18.9068 14.3255 20.7165 16.6689 20.7165 19.4358C20.7165 22.2028 18.9068 24.5462 16.4067 25.3494C17.0061 25.542 17.6447 25.647 18.3082 25.647C21.7385 25.647 24.5194 22.8662 24.5194 19.4358C24.5194 16.0054 21.7384 13.2246 18.3082 13.2246Z" fill="#FB4C47"/>
<path d="M32.5002 53.7812C43.7014 53.7812 52.7817 44.7009 52.7817 33.4997C52.7817 22.2986 43.7014 13.2183 32.5002 13.2183C21.2991 13.2183 12.2188 22.2986 12.2188 33.4997C12.2188 44.7009 21.2991 53.7812 32.5002 53.7812Z" fill="#FFBFBE"/>
<path d="M32.5015 13.2183C31.8602 13.2183 31.2263 13.2494 30.6001 13.3077C40.9095 14.2665 48.9803 22.94 48.9803 33.4997C48.9803 44.0595 40.9096 52.733 30.6002 53.6918C31.2263 53.75 31.8603 53.7812 32.5016 53.7812C43.7029 53.7812 52.7831 44.701 52.7831 33.4997C52.7831 22.2985 43.7027 13.2183 32.5015 13.2183Z" fill="#FFA2A2"/>
<path d="M40.1036 30.6866C42.3788 30.6866 44.2233 28.8422 44.2233 26.567C44.2233 24.2917 42.3788 22.4473 40.1036 22.4473C37.8283 22.4473 35.9839 24.2917 35.9839 26.567C35.9839 28.8422 37.8283 30.6866 40.1036 30.6866Z" fill="#FFA2A1"/>
<path d="M40.1065 22.4473C39.4204 22.4473 38.774 22.616 38.2051 22.9126C39.523 23.5998 40.4234 24.9778 40.4234 26.567C40.4234 28.1561 39.523 29.5342 38.2051 30.2213C38.774 30.5179 39.4204 30.6866 40.1065 30.6866C42.3818 30.6866 44.2262 28.8422 44.2262 26.567C44.2262 24.2917 42.3818 22.4473 40.1065 22.4473Z" fill="#FF807E"/>
<path d="M25.2484 44.2112C26.7886 44.2112 28.0371 42.9627 28.0371 41.4225C28.0371 39.8823 26.7886 38.6338 25.2484 38.6338C23.7083 38.6338 22.4597 39.8823 22.4597 41.4225C22.4597 42.9627 23.7083 44.2112 25.2484 44.2112Z" fill="#FF807E"/>
<path d="M46.2971 52.3442C48.3973 52.3442 50.0998 50.6417 50.0998 48.5415C50.0998 46.4413 48.3973 44.7388 46.2971 44.7388C44.1969 44.7388 42.4944 46.4413 42.4944 48.5415C42.4944 50.6417 44.1969 52.3442 46.2971 52.3442Z" fill="#FB4C47"/>
<path d="M46.2977 44.7388C45.6048 44.7388 44.9557 44.9251 44.3962 45.2488C45.5326 45.9063 46.2977 47.1342 46.2977 48.5416C46.2977 49.949 45.5326 51.1768 44.3962 51.8344C44.9557 52.1582 45.6048 52.3445 46.2977 52.3445C48.3979 52.3445 50.1004 50.6419 50.1004 48.5417C50.1004 46.4416 48.3979 44.7388 46.2977 44.7388Z" fill="#FF807E"/>
<path d="M19.0794 33.4997C19.0794 34.5498 18.2282 35.4012 17.178 35.4012H12.8537C10.6523 35.4012 8.47746 35.9058 6.51205 36.8974C5.92611 37.1931 5.25305 37.3414 4.5416 37.2939C2.65654 37.168 1.12832 35.6348 1.00798 33.7494C0.866721 31.5359 2.61975 29.697 4.80283 29.697C5.39418 29.697 5.95392 29.832 6.45287 30.0729C8.45556 31.0398 10.6305 31.5984 12.8544 31.5984H17.1781C18.2281 31.5983 19.0794 32.4497 19.0794 33.4997Z" fill="#FB4C47"/>
<path d="M32.4988 20.0794C33.5488 20.0794 34.4002 19.2282 34.4002 18.178V13.8537C34.4002 11.6523 34.9048 9.47746 35.8964 7.51205C36.1921 6.92611 36.3404 6.25305 36.2929 5.5416C36.167 3.65654 34.6339 2.12832 32.7484 2.00798C30.535 1.86672 28.696 3.61975 28.696 5.80283C28.696 6.39418 28.831 6.95392 29.0719 7.45287C30.0388 9.45556 30.5975 11.6305 30.5975 13.8544V18.1781C30.5973 19.2281 31.4487 20.0794 32.4988 20.0794Z" fill="#FFA2A1"/>
<path d="M36.2938 5.54159C36.168 3.65653 34.6348 2.12831 32.7494 2.00797C31.9619 1.95764 31.2225 2.14812 30.5957 2.51147C31.6605 3.13076 32.4048 4.25256 32.491 5.54159C32.5385 6.25304 32.3902 6.9261 32.0945 7.51204C31.1029 9.47745 30.5983 11.6523 30.5983 13.8537V18.178C30.5983 19.2281 31.4495 20.0794 32.4997 20.0794C33.5499 20.0794 34.4011 19.2282 34.4011 18.178V13.8537C34.4011 11.6523 34.9058 9.47745 35.8974 7.51204C36.1931 6.9261 36.3415 6.25304 36.2938 5.54159Z" fill="#FB4C47"/>
<path d="M60.2006 29.6992C59.6096 29.6992 59.0502 29.8341 58.5515 30.0749C58.4633 30.1175 58.3742 30.1583 58.2854 30.1993C59.4964 30.8925 60.2894 32.2329 60.1926 33.7493C60.1098 35.0462 59.3604 36.1761 58.2871 36.7957C58.3555 36.8288 58.4243 36.8612 58.4922 36.8954C59.0779 37.1908 59.7505 37.3391 60.4616 37.2916C62.3455 37.1657 63.8729 35.6336 63.9931 33.7493C64.1344 31.537 62.3823 29.6992 60.2006 29.6992Z" fill="#FF807E"/>
</svg>
